<svg xmlns="http://www.w3.org/2000/svg" width="15" height="13" viewBox="0 0 15 13">
  <defs>
    <style>
      .cls-1 {
        fill: #fff;
        fill-rule: evenodd;
      }
    </style>
  </defs>
  <path id="Прямоугольник_скругл._углы_2_копия_3" data-name="Прямоугольник, скругл. углы 2 копия 3" class="cls-1" d="M276,68h1a1,1,0,0,1,1,1V80a1,1,0,0,1-1,1h-1a1,1,0,0,1-1-1V69A1,1,0,0,1,276,68Zm4,6h1a1,1,0,0,1,1,1v5a1,1,0,0,1-1,1h-1a1,1,0,0,1-1-1V75A1,1,0,0,1,280,74Zm4-3h1a1,1,0,0,1,1,1v8a1,1,0,0,1-1,1h-1a1,1,0,0,1-1-1V72A1,1,0,0,1,284,71Zm4,6h1a1,1,0,0,1,1,1v2a1,1,0,0,1-1,1h-1a1,1,0,0,1-1-1V78A1,1,0,0,1,288,77Z" transform="translate(-275 -68)"/>
</svg>
