<svg id="betcoin_icon_копия" data-name="betcoin icon копия" xmlns="http://www.w3.org/2000/svg" width="13" height="17" viewBox="0 0 13 17">
  <defs>
    <style>
      .cls-1, .cls-2 {
        fill: #fba200;
      }

      .cls-1 {
        fill-rule: evenodd;
      }
    </style>
  </defs>
  <g id="tower_2" data-name="tower 2">
    <path id="Эллипс_1411_копия" data-name="Эллипс 1411 копия" class="cls-1" d="M13.2,4.905C13.618,4.9,14.049,6,14.5,6A2.321,2.321,0,0,0,17,3.75a1.282,1.282,0,0,0-.242-0.731C16.494,3.881,15.985,4.5,13.5,4.5c-2.514,0-3.217-.477-4.236-1.511A1.3,1.3,0,0,0,9,3.75c0,0.535.374,0.027,1,.413C10.7,4.1,12.918,4.261,13.2,4.905Z" transform="translate(-4)"/>
    <path id="Эллипс_1411_копия_3" data-name="Эллипс 1411 копия 3" class="cls-1" d="M14,7.493c0.158,0,.325.013,0.5,0.007,1.035-.038,2.1-0.411,2.257-1.481A1.282,1.282,0,0,1,17,6.75C17,7.993,16.985,9,14.5,9a8.644,8.644,0,0,1-1.514-.131A1.92,1.92,0,0,0,14,7.493Z" transform="translate(-4)"/>
    <path id="Эллипс_1411_копия_4" data-name="Эллипс 1411 копия 4" class="cls-1" d="M13.994,10.871c0.455,0.149,1.243.348,0.506,1.129A2.333,2.333,0,0,0,17,9.75a1.282,1.282,0,0,0-.242-0.731A2.176,2.176,0,0,1,14.5,10.5a10.612,10.612,0,0,0-1.483.172A3.426,3.426,0,0,1,13.994,10.871Z" transform="translate(-4)"/>
    <path id="Эллипс_1411_копия_5" data-name="Эллипс 1411 копия 5" class="cls-1" d="M15.4,15c-0.022.024,0.065,0,.1,0A2.582,2.582,0,0,0,17,12.75a1.282,1.282,0,0,0-.242-0.731A2.686,2.686,0,0,1,15.5,13.5a2.955,2.955,0,0,1-.95-0.028C14.829,13.49,16.816,13.431,15.4,15Z" transform="translate(-4)"/>
    <ellipse id="Эллипс_1411" data-name="Эллипс 1411" class="cls-2" cx="9" cy="1.5" rx="4" ry="1.5"/>
  </g>
  <g id="tower">
    <path id="Эллипс_1411_копия_7" data-name="Эллипс 1411 копия 7" class="cls-1" d="M12,9.376a0.657,0.657,0,0,1-.089.323C11.5,10.442,9.678,11,7.5,11,5.015,11,4,10.273,4,9.376,4,8.8,3.821,8.3,5.061,8.011A0.411,0.411,0,0,0,5,8.294c0,0.9,2.015,1.624,4.5,1.624A5.1,5.1,0,0,0,12,9.376Z" transform="translate(-4)"/>
    <path id="Эллипс_1411_копия_8" data-name="Эллипс 1411 копия 8" class="cls-1" d="M6,12.376a0.657,0.657,0,0,0,.089.323C6.5,13.442,8.322,14,10.5,14c2.485,0,3.5-.727,3.5-1.624,0-.572-0.821-1.076-2.061-1.365a0.411,0.411,0,0,1,.062.282c0,0.9-1.015,1.624-3.5,1.624A5.1,5.1,0,0,1,6,12.376Z" transform="translate(-4)"/>
    <path id="Эллипс_1411_копия_9" data-name="Эллипс 1411 копия 9" class="cls-1" d="M7,15.376a0.657,0.657,0,0,0,.089.323C7.5,16.442,9.322,17,11.5,17c2.485,0,3.5-.727,3.5-1.624,0-.572.179-1.076-1.061-1.365a0.411,0.411,0,0,1,.062.282c0,0.9-2.015,1.624-4.5,1.624A5.1,5.1,0,0,1,7,15.376Z" transform="translate(-4)"/>
    <ellipse id="Эллипс_1411-2" data-name="Эллипс 1411" class="cls-2" cx="5" cy="6.5" rx="4" ry="1.5"/>
  </g>
</svg>
