<svg xmlns="http://www.w3.org/2000/svg" width="10.969" height="7" viewBox="0 0 10.969 7">
  <defs>
    <style>
      .cls-1 {
        fill: #c8c8c8;
        fill-rule: evenodd;
      }
    </style>
  </defs>
  <path id="arrow_2_1092" data-name="arrow 2 1092" class="cls-1" d="M174.422,198.222c1.615,1.637,3.954,4.774,4.992,4.778a2.362,2.362,0,0,0,1.349-1l2.564-2.522c0.371-.365.764-0.807,1.147-1.261,1.018-1.148.389-2.186-.473-2.15a1.917,1.917,0,0,0-1.416.929c-0.7.686-1.412,1.353-2.092,2.057a3.516,3.516,0,0,1-.944.929,4.405,4.405,0,0,1-1.282-1.194c-0.946-.93-2.132-2.382-2.9-2.721C174.114,195.645,173.589,197.346,174.422,198.222Z" transform="translate(-174.031 -196)"/>
</svg>
