<svg id="betcoin_icon" data-name="betcoin icon" xmlns="http://www.w3.org/2000/svg" width="40" height="33" viewBox="0 0 40 33">
  <defs>
    <style>
      .cls-1, .cls-2 {
        fill: #fba200;
      }

      .cls-1 {
        fill-rule: evenodd;
      }
    </style>
  </defs>
  <g id="tower_2" data-name="tower 2">
    <path id="Эллипс_1411_копия" data-name="Эллипс 1411 копия" class="cls-1" d="M583.117,787.819c0.923-.017,1.881.19,2.883,0.19,5.523,0,10-2.012,10-4.493a2.392,2.392,0,0,0-.539-1.459c-2.249,1.97-3.94,2.8-9.461,2.957A16.117,16.117,0,0,1,576,782c0.042,1.161,0,1.982,0,2.516,0,1.068,1.424.578,2,1.484C579.185,786.088,582.177,786.567,583.117,787.819Z" transform="translate(-556 -776)"/>
    <path id="Эллипс_1411_копия_3" data-name="Эллипс 1411 копия 3" class="cls-1" d="M584.352,789.963q0.552,0.014,1.164.014c5.79,0,7.561-1,9.919-2.984a2.36,2.36,0,0,1,.565,1.472c0,2.5-4.694,4.535-10.484,4.535A12.424,12.424,0,0,1,583,793C583.452,793.07,584.312,791.173,584.352,789.963Z" transform="translate(-556 -776)"/>
    <path id="Эллипс_1411_копия_4" data-name="Эллипс 1411 копия 4" class="cls-1" d="M583,798c1.091-.082,1.665-0.037,2.856-0.037,5.6,0,10.144-2.011,10.144-4.493a2.372,2.372,0,0,0-.547-1.459c-2.281,1.971-4,2.957-9.6,2.957-4.224,0-6.055.8-6.856-.968C580.077,796.378,583.057,796.1,583,798Z" transform="translate(-556 -776)"/>
    <path id="Эллипс_1411_копия_5" data-name="Эллипс 1411 копия 5" class="cls-1" d="M587,803c0,0.068.014-.018,0.086-0.018,5.475,0,8.914-2.022,8.914-4.514a2.419,2.419,0,0,0-.535-1.466c-2.229,1.98-3.9,2.97-9.379,2.97-0.771,0-2.457.065-3.086,0.028C583.615,800.037,587.029,801.2,587,803Z" transform="translate(-556 -776)"/>
    <ellipse id="Эллипс_1411" data-name="Эллипс 1411" class="cls-2" cx="30" cy="3.5" rx="10" ry="3.5"/>
  </g>
  <g id="tower">
    <path id="Эллипс_1411_копия_7" data-name="Эллипс 1411 копия 7" class="cls-1" d="M577,794.649a1.953,1.953,0,0,1-.209.865c-0.969,1.983-5.209,3.477-10.291,3.477-5.8,0-10.5-1.944-10.5-4.342,0-1.531,1.916-2.877,4.81-3.65a1.231,1.231,0,0,0-.144.755c0,2.4,4.7,4.342,10.5,4.342A10.636,10.636,0,0,0,577,794.649Z" transform="translate(-556 -776)"/>
    <path id="Эллипс_1411_копия_8" data-name="Эллипс 1411 копия 8" class="cls-1" d="M561,800a0.8,0.8,0,0,0,.2.52c0.97,1.991,5.209,3.489,10.292,3.489,5.8,0,10.5-1.951,10.5-4.357,0-1.536-1.1-2.876-3.993-3.652a0.92,0.92,0,0,1,0,1c-1.975,2.456-5.375,4.1-11.174,4.1C564.738,801.1,563.625,801.315,561,800Z" transform="translate(-556 -776)"/>
    <path id="Эллипс_1411_копия_9" data-name="Эллипс 1411 копия 9" class="cls-1" d="M565,805a0.8,0.8,0,0,0,.194.523c0.97,1.983,5.209,3.477,10.292,3.477,5.8,0,10.5-1.944,10.5-4.342,0-1.531-.979-2.055-2.986-2.658a3.021,3.021,0,0,0-1,1c-0.948,2.2-5.382,3.105-11.181,3.105A14.532,14.532,0,0,1,565,805Z" transform="translate(-556 -776)"/>
    <ellipse id="Эллипс_1411-2" data-name="Эллипс 1411" class="cls-2" cx="16.094" cy="14.078" rx="10.25" ry="3.422"/>
  </g>
</svg>
