<svg xmlns="http://www.w3.org/2000/svg" xmlns:xlink="http://www.w3.org/1999/xlink" width="8" height="15" viewBox="0 0 8 15">
  <defs>
    <style>
      .cls-1 {
        fill: #fff;
        fill-rule: evenodd;
        filter: url(#filter);
      }
    </style>
    <filter id="filter" x="342" y="254" width="8" height="15" filterUnits="userSpaceOnUse">
      <feFlood result="flood" flood-color="#fba200"/>
      <feComposite result="composite" operator="in" in2="SourceGraphic"/>
      <feBlend result="blend" in2="SourceGraphic"/>
    </filter>
  </defs>
  <path id="coins_2536" data-name="coins 2536" class="cls-1" d="M345.077,254.009c2.206-.074,4.092.409,4.615,1.905A2.113,2.113,0,0,1,350,257.38a7.422,7.422,0,0,1-1.538,1.759c-1.78,1.037-5.39.551-6-1.173-0.654-.642-0.377-1.523-0.154-2.345,0.438-.269.674-0.769,1.077-1.026ZM342,258.992c0.754,0.259,1.272.916,2,1.173,2.611,0.92,4.3-.583,6-1.173v0.733a7.1,7.1,0,0,1-1.538,1.759c-1.835,1.028-5.433.412-6-1.173A1.849,1.849,0,0,1,342,258.992Zm0,2.2c1.279,0.819,3.053,2.1,5.385,1.465,1.015-.274,1.7-1.008,2.615-1.319v0.587a2.62,2.62,0,0,0-.462,1.025,13.413,13.413,0,0,1-1.384,1.027C345.4,265.257,342.068,263.652,342,261.191Zm0,2.345c1.323,0.827,3.3,2.123,5.846,1.319,0.829-.261,1.36-0.9,2.154-1.173v0.587c-0.727.915-1.073,1.769-2.308,2.2C344.886,267.442,342.056,265.846,342,263.536Zm0,2.345c3.025,1.9,4.984,1.861,8,0v0.733a1.671,1.671,0,0,0-.308.733A9.85,9.85,0,0,1,348,268.666c-2.157.856-5.119-.01-5.692-1.613A1.666,1.666,0,0,1,342,265.881Z" transform="translate(-342 -254)"/>
</svg>
