<svg xmlns="http://www.w3.org/2000/svg" xmlns:xlink="http://www.w3.org/1999/xlink" width="13.969" height="15" viewBox="0 0 13.969 15">
  <defs>
    <style>
      .cls-1 {
        filter: url(#filter);
      }

      .cls-2 {
        fill: #fff;
        filter: url(#filter-2);
      }

      .cls-2, .cls-3 {
        fill-rule: evenodd;
      }

      .cls-3 {
        fill: #1a7302;
      }
    </style>
    <filter id="filter" filterUnits="userSpaceOnUse">
      <feFlood result="flood" flood-color="#c8c8c8"/>
      <feComposite result="composite" operator="in" in2="SourceGraphic"/>
      <feBlend result="blend" in2="SourceGraphic"/>
    </filter>
    <filter id="filter-2" x="336" y="404" width="8" height="15" filterUnits="userSpaceOnUse">
      <feFlood result="flood" flood-color="#1a7302"/>
      <feComposite result="composite" operator="in" in2="SourceGraphic"/>
      <feBlend result="blend" in2="SourceGraphic"/>
    </filter>
  </defs>
  <g id="Группа_98_копия" data-name="Группа 98 копия" class="cls-1">
    <path id="coins_2536_копия" data-name="coins 2536 копия" class="cls-2" d="M339.077,404.009c2.206-.074,4.091.409,4.615,1.9A2.113,2.113,0,0,1,344,407.38a7.4,7.4,0,0,1-1.539,1.759c-1.779,1.037-5.389.551-6-1.173-0.653-.642-0.376-1.523-0.153-2.345,0.438-.269.674-0.769,1.077-1.026ZM336,408.992c0.754,0.259,1.272.916,2,1.173,2.611,0.92,4.3-.583,6-1.173v0.733a7.084,7.084,0,0,1-1.539,1.759c-1.834,1.028-5.432.412-6-1.173A1.853,1.853,0,0,1,336,408.992Zm0,2.2c1.279,0.819,3.053,2.1,5.385,1.465,1.015-.274,1.7-1.009,2.615-1.319v0.587a2.62,2.62,0,0,0-.462,1.025,13.259,13.259,0,0,1-1.384,1.026C339.4,415.257,336.068,413.651,336,411.191Zm0,2.345c1.323,0.827,3.3,2.123,5.846,1.319,0.829-.262,1.36-0.9,2.154-1.173v0.587c-0.728.915-1.073,1.769-2.308,2.2C338.886,417.442,336.055,415.846,336,413.536Zm0,2.345c3.025,1.9,4.984,1.861,8,0v0.733a1.672,1.672,0,0,0-.308.732A9.752,9.752,0,0,1,342,418.665c-2.157.857-5.119-.009-5.692-1.612A1.666,1.666,0,0,1,336,415.881Z" transform="translate(-330.031 -404)"/>
    <path id="_" data-name="+" class="cls-3" d="M330.023,411.92h6.535v1.757h-6.535V411.92Zm2.277-2.543h1.982v6.85H332.3v-6.85Z" transform="translate(-330.031 -404)"/>
  </g>
</svg>
