<svg xmlns="http://www.w3.org/2000/svg" xmlns:xlink="http://www.w3.org/1999/xlink" width="8" height="15" viewBox="0 0 8 15">
  <defs>
    <style>
      .cls-1 {
        fill: #fff;
        fill-rule: evenodd;
        filter: url(#filter);
      }
    </style>
    <filter id="filter" x="1065" y="355" width="8" height="15" filterUnits="userSpaceOnUse">
      <feFlood result="flood" flood-color="#fba200"/>
      <feComposite result="composite" operator="in" in2="SourceGraphic"/>
      <feBlend result="blend" in2="SourceGraphic"/>
    </filter>
  </defs>
  <path id="coins_2536" data-name="coins 2536" class="cls-1" d="M1068.08,355.009c2.2-.074,4.09.409,4.61,1.9a2.076,2.076,0,0,1,.31,1.466,7.213,7.213,0,0,1-1.54,1.759c-1.78,1.037-5.39.551-6-1.173-0.65-.642-0.37-1.523-0.15-2.345,0.44-.269.67-0.769,1.07-1.026C1066.95,355.4,1067.51,355.205,1068.08,355.009Zm-3.08,4.983c0.75,0.259,1.27.916,2,1.173,2.61,0.92,4.3-.583,6-1.173v0.733a7.068,7.068,0,0,1-1.54,1.759c-1.83,1.028-5.43.412-6-1.173A1.866,1.866,0,0,1,1065,359.992Zm0,2.2c1.28,0.819,3.05,2.1,5.38,1.465,1.02-.274,1.71-1.008,2.62-1.319v0.587a2.566,2.566,0,0,0-.46,1.026,13.57,13.57,0,0,1-1.39,1.025C1068.4,366.257,1065.07,364.652,1065,362.191Zm0,2.345c1.32,0.827,3.3,2.123,5.85,1.319,0.82-.261,1.36-0.9,2.15-1.173v0.587c-0.73.915-1.07,1.769-2.31,2.2C1067.89,368.442,1065.06,366.846,1065,364.536Zm0,2.345c3.02,1.9,4.98,1.861,8,0v0.733a1.7,1.7,0,0,0-.31.732,9.568,9.568,0,0,1-1.69,1.32c-2.16.856-5.12-.01-5.69-1.613A1.628,1.628,0,0,1,1065,366.881Z" transform="translate(-1065 -355)"/>
</svg>
