<svg xmlns="http://www.w3.org/2000/svg" width="10" height="10" viewBox="0 0 10 10">
  <defs>
    <style>
      .cls-1 {
        fill: #696969;
        fill-rule: evenodd;
      }
    </style>
  </defs>
  <path id="cross_2540_копия" data-name="cross 2540 копия" class="cls-1" d="M528.389,392c1.553,0.241,2.342,2.648,3.7,3.148,0.441-.68,2.678-3.019,3.518-3.148,0.535,0.5,1.254.76,1.389,1.667-0.214.218-.34,0.523-0.556,0.74-0.651.659-2.29,1.843-2.592,2.685,0.591,0.385,3.036,2.837,3.148,3.519-0.428.5-.854,0.919-1.3,1.389h-0.463a22.584,22.584,0,0,0-3.334-3.148A26.894,26.894,0,0,1,528.759,402H528.3c-0.484-.5-1.178-0.8-1.3-1.667L530.241,397c-0.678-.44-3.124-2.777-3.241-3.611C527.466,392.953,527.953,392.466,528.389,392Z" transform="translate(-527 -392)"/>
</svg>
