<svg xmlns="http://www.w3.org/2000/svg" width="8" height="8" viewBox="0 0 8 8">
  <defs>
    <style>
      .cls-1 {
        fill: #c8c8c8;
        fill-rule: evenodd;
      }
    </style>
  </defs>
  <path id="cross_2340" data-name="cross 2340" class="cls-1" d="M783.611,695.545c-0.278.317-.563,0.625-0.832,0.88l-1.538,1.454c0.785,0.742,1.725,1.863,2.458,2.576,0.606,0.612.224,1.8-.687,1.5a12.14,12.14,0,0,1-2.112-1.9,3.128,3.128,0,0,0-.933-0.834,2.546,2.546,0,0,0-.687.649c-0.5.491-1.015,0.957-1.522,1.435a1.4,1.4,0,0,1-1.031.649c-0.627.025-1.085-.7-0.344-1.5,0.279-.317.564-0.82,0.835-1.075,0.512-.483,1.024-0.835,1.535-1.271-0.781-.742-1.712-1.855-2.441-2.564-0.6-.612-0.223-1.8.686-1.5a12.1,12.1,0,0,1,2.107,1.9,3.169,3.169,0,0,0,.93.834,2.515,2.515,0,0,0,.686-0.649c0.494-.491,1.013-0.957,1.519-1.435a1.4,1.4,0,0,1,1.029-.649C783.894,694.019,784.351,694.743,783.611,695.545Z" transform="translate(-776 -694)"/>
</svg>
