<svg xmlns="http://www.w3.org/2000/svg" width="13" height="9" viewBox="0 0 13 9">
  <defs>
    <style>
      .cls-1 {
        fill: #fba200;
        fill-rule: evenodd;
      }
    </style>
  </defs>
  <path id="crown_2_2545_копия_2" data-name="crown 2 2545 копия 2" class="cls-1" d="M458.392,291.882c-0.072,1.32-.646,2.482-0.728,3.829H447.41c-0.033-1.343-.61-2.518-0.727-3.829l-0.331-.069a0.868,0.868,0,0,1-.265-0.557c-0.235-.406.271-0.71,0.463-0.9a0.822,0.822,0,0,1,.993.974,0.408,0.408,0,0,0-.133.349,2.928,2.928,0,0,0,1.985,1.6,5.687,5.687,0,0,0,1.522-1.184,14.134,14.134,0,0,1,1.124-1.671,1.914,1.914,0,0,1-.132-1.113,1.737,1.737,0,0,0,.331-0.279,0.691,0.691,0,0,1,.595.07c0.687,0.242.184,0.981,0.265,1.322a6.5,6.5,0,0,0,1.984,2.507,1.087,1.087,0,0,0,.86.348,3.816,3.816,0,0,0,1.787-1.671,0.8,0.8,0,0,1-.2-0.7,0.984,0.984,0,0,1,.992-0.557,1.107,1.107,0,0,1,.464,1.183,1.487,1.487,0,0,1-.4.279A0.326,0.326,0,0,1,458.392,291.882ZM447.543,296.2H457.6a4.274,4.274,0,0,1,.133,1.6c-0.638.343-2.1,0.139-2.977,0.139h-6.947a0.4,0.4,0,0,1-.33-0.07A3.015,3.015,0,0,1,447.543,296.2Z" transform="translate(-446 -289)"/>
</svg>
