<svg xmlns="http://www.w3.org/2000/svg" width="7" height="12" viewBox="0 0 7 12">
  <defs>
    <style>
      .cls-1 {
        fill: #696969;
        fill-rule: evenodd;
      }
    </style>
  </defs>
  <path id="sandclock_2544" data-name="sandclock 2544" class="cls-1" d="M533.389,426.009h5.838a1.474,1.474,0,0,1,.444.015,0.613,0.613,0,0,1,.266.227,1.118,1.118,0,0,1,.044.472v1a5.5,5.5,0,0,1-.015,1.049,3.414,3.414,0,0,1-.621,1.291c-0.452.621-1.239,1-1.433,1.869a0.736,0.736,0,0,0,.1.456,3.624,3.624,0,0,0,.739.912,4,4,0,0,1,1.212,1.929,3.6,3.6,0,0,1,.015.745v1.641a0.577,0.577,0,0,1-.192.288,4.933,4.933,0,0,1-1.478.076h-3.8c-0.612,0-1.354.143-1.493-.364a0.9,0.9,0,0,1,0-.274v-0.79a6.473,6.473,0,0,1,.045-1.474,3.624,3.624,0,0,1,.65-1.215c0.3-.412.758-0.723,1.064-1.14a1.6,1.6,0,0,0,.355-0.592,1.367,1.367,0,0,0-.517-1.049,5.292,5.292,0,0,1-1.523-2.036,5.189,5.189,0,0,1-.074-1.367v-0.942a1.374,1.374,0,0,1,.03-0.456A0.737,0.737,0,0,1,533.389,426.009Zm0.562,1.215a5.586,5.586,0,0,0,.088,1.687c0.379,0.895,1.272,1.347,1.759,2.142a2.622,2.622,0,0,1,.281.851,1.221,1.221,0,0,1-.1.638,3.875,3.875,0,0,1-.975,1.337,3.675,3.675,0,0,0-1,1.352,7.053,7.053,0,0,0-.044,1.55h0.266a1.477,1.477,0,0,1,.34-0.334l0.266-.289c0.16-.164.333-0.316,0.5-0.471a3.262,3.262,0,0,1,.783-0.714,1.088,1.088,0,0,1,.946.091l1.257,1.231c0.12,0.124.249,0.241,0.369,0.365l0.1,0.121h0.266a5.221,5.221,0,0,0-.1-1.717,3.88,3.88,0,0,0-.857-1.079l-0.251-.243a4.9,4.9,0,0,1-.754-1.109,3.022,3.022,0,0,1-.1-0.471,1.383,1.383,0,0,1,.1-0.729,3.864,3.864,0,0,1,1.02-1.413,3.36,3.36,0,0,0,.9-1.246,7.183,7.183,0,0,0,.044-1.55h-5.1Z" transform="translate(-533 -426)"/>
</svg>
