<svg xmlns="http://www.w3.org/2000/svg" width="13" height="11.031" viewBox="0 0 13 11.031">
  <defs>
    <style>
      .cls-1 {
        fill: #c8c8c8;
        fill-rule: evenodd;
      }
    </style>
  </defs>
  <path id="info_1" data-name="info 1" class="cls-1" d="M871.983,61.009h5.545a16.658,16.658,0,0,1,3.3.147,4.949,4.949,0,0,0,.561.735,1.436,1.436,0,0,1-.7,1.69c-0.425.34-1.77,0.147-2.457,0.147h-6.247a2.784,2.784,0,0,1-.843-0.661,6.726,6.726,0,0,1-.14-0.955c0.108-.144.106-0.352,0.211-0.514A3.257,3.257,0,0,1,871.983,61.009Zm-0.07,4.114h8.143a12.276,12.276,0,0,1,3.088.073,1.373,1.373,0,0,1,.351,2.425c-0.619.433-2.192,0.22-3.159,0.22h-8.283a2.178,2.178,0,0,1-.983-0.882C870.963,65.687,871.263,65.752,871.913,65.124Zm0.28,4.041h6.669c1.171,0,2.276-.073,2.457.955a1.425,1.425,0,0,1,0,1.1,2.893,2.893,0,0,1-.772.661,7,7,0,0,1-2.036.073H874.3a6.989,6.989,0,0,1-2.6-.147,3.234,3.234,0,0,1-.632-0.735c-0.105-1.234.158-1.2,0.772-1.837A0.566,0.566,0,0,0,872.193,69.165Z" transform="translate(-871 -61)"/>
</svg>
