<svg id="icon" xmlns="http://www.w3.org/2000/svg" width="8.5" height="8.5" viewBox="0 0 8.5 8.5">
  <defs>
    <style>
      .cls-1 {
        fill: none;
        stroke: #fff;
        stroke-width: 1px;
      }

      .cls-1, .cls-2 {
        fill-rule: evenodd;
      }

      .cls-2 {
        fill: #fff;
      }
    </style>
  </defs>
  <path id="Прямоугольник_скругл._углы2032" data-name="Прямоугольник, скругл. углы2032" class="cls-1" d="M151,944v2a2,2,0,0,1-2,2h-3a2,2,0,0,1-2-2v-3a2,2,0,0,1,2-2h2" transform="translate(-143.5 -940)"/>
  <path id="Фигура_2033" data-name="Фигура 2033" class="cls-2" d="M147.354,945.354l-0.708-.708,4-4,0.708,0.708Z" transform="translate(-143.5 -940)"/>
  <path id="arrow_2_2034" data-name="arrow 2 2034" class="cls-2" d="M151.866,942.491c0.023-.8.244-2.163,0-2.415a0.759,0.759,0,0,0-.558-0.074l-1.216.019c-0.176,0-.376.02-0.576,0.042-0.519.045-.626,0.46-0.416,0.658a0.615,0.615,0,0,0,.558.108c0.331-.006.661,0,0.992-0.016a1.152,1.152,0,0,1,.448-0.007,1.613,1.613,0,0,1,.007.612,6.042,6.042,0,0,0,.012,1.389C151.308,943.218,151.846,942.914,151.866,942.491Z" transform="translate(-143.5 -940)"/>
</svg>
