<svg xmlns="http://www.w3.org/2000/svg" width="10" height="15" viewBox="0 0 10 15">
  <defs>
    <style>
      .cls-1 {
        fill: #696969;
        fill-rule: evenodd;
      }
    </style>
  </defs>
  <path id="locked_lock_2533" data-name="locked lock 2533" class="cls-1" d="M982.547,390c2.039-.027,3.162.911,3.483,2.591l0.036,3.167c2.323,0,1.884,2.773,1.884,5.111a9.707,9.707,0,0,1-.107,2.843,2.03,2.03,0,0,1-1.6,1.26h-4.728a7.176,7.176,0,0,1-2.2-.108,2.114,2.114,0,0,1-1.138-1.152,5.987,5.987,0,0,1-.106-1.835c0-1.427-.276-4.381.284-5.255a2.321,2.321,0,0,1,1.635-.9c-0.026-2.621-.174-4.328,1.458-5.326Zm0.426,1.511c-1.4.56-1.493,0.723-1.493,2.664l0.036,1.583,3.021-.036C984.575,393.5,984.918,391.861,982.973,391.511Zm0,6.911c-0.855.327-1.9,0.833-1.386,2.123a9.526,9.526,0,0,0,.675.756c0.218,0.472.086,1.157,0.889,0.972,0.592-.137.369-0.451,0.6-0.972l0.569-.54C985.034,399.566,984.026,398.6,982.973,398.422Z" transform="translate(-978 -390)"/>
</svg>
