<svg id="icon" xmlns="http://www.w3.org/2000/svg" width="13" height="13" viewBox="0 0 13 13">
  <defs>
    <style>
      .cls-1 {
        fill-rule: evenodd;
      }
    </style>
  </defs>
  <path id="Прямоугольник_скругл._углы_918_копия_5" data-name="Прямоугольник, скругл. углы 918 копия 5" class="cls-1" d="M975.905,599.655c1.4-1.321,4.091-3.235,4.1-4.084a1.943,1.943,0,0,0-.853-1.1l-2.162-2.1c-0.313-.3-0.691-0.625-1.08-0.938-0.985-.833-1.875-0.318-1.843.386a1.57,1.57,0,0,0,.8,1.159c0.588,0.571,1.16,1.155,1.763,1.711a2.96,2.96,0,0,1,.8.773,3.66,3.66,0,0,1-1.023,1.049,14.052,14.052,0,0,0-2.332,2.373C973.7,599.907,975.154,600.337,975.905,599.655ZM981,593a2,2,0,0,1,4,0v5a2,2,0,0,1-4,0s-2,.589-2,1v0.5a2.5,2.5,0,0,0,2.5,2.5h3a2.5,2.5,0,0,0,2.5-2.5v-8a2.5,2.5,0,0,0-2.5-2.5h-3a2.5,2.5,0,0,0-2.5,2.5v0.483C979,592.275,981,593,981,593Z" transform="translate(-974 -589)"/>
</svg>
