<svg xmlns="http://www.w3.org/2000/svg" width="13" height="10.031" viewBox="0 0 13 10.031">
  <defs>
    <style>
      .cls-1 {
        fill: #fff;
        fill-rule: evenodd;
      }
    </style>
  </defs>
  <path id="mail_1" data-name="mail 1" class="cls-1" d="M421.673,63.01h7.257c1.227,0,2.522-.11,3.226.412,1.108,0.821.806,3.214,0.806,5.148,0,1.3.13,2.751-.4,3.5-0.856,1.2-3.646.824-5.645,0.824-1.806,0-4.928.419-6.048-.412-1.19-.883-0.806-3.809-0.806-5.869a7.246,7.246,0,0,1,.1-2.265A3.773,3.773,0,0,1,421.673,63.01Zm-0.3,2.265a1.207,1.207,0,0,0-.2.721,0.374,0.374,0,0,1,.1.206c1.894,0.61,3.276,3.094,5.544,3.192,0.3-.232.692-0.3,1.008-0.515,0.841-.567,1.682-1.282,2.52-1.853A3.424,3.424,0,0,0,431.752,66a0.9,0.9,0,0,0,.1-0.515,1.308,1.308,0,0,0-.806-0.206c-0.669.88-2.464,1.715-3.427,2.368-0.344.233-.767,0.8-1.21,0.618C424.673,67.778,423.348,65.371,421.37,65.275Z" transform="translate(-420 -63)"/>
</svg>
