<svg xmlns="http://www.w3.org/2000/svg" width="13" height="13" viewBox="0 0 13 13">
  <defs>
    <style>
      .cls-1 {
        fill: #fff;
        fill-rule: evenodd;
      }
    </style>
  </defs>
  <path id="Прямоугольник_скругл._углы_918_копия_5" data-name="Прямоугольник, скругл. углы 918 копия 5" class="cls-1" d="M258.9,62.655c1.4-1.322,4.091-3.236,4.1-4.085a1.948,1.948,0,0,0-.853-1.1l-2.162-2.1c-0.313-.3-0.691-0.625-1.08-0.938-0.985-.833-1.875-0.318-1.843.386a1.57,1.57,0,0,0,.8,1.159c0.588,0.57,1.16,1.155,1.763,1.711a2.95,2.95,0,0,1,.8.773,3.666,3.666,0,0,1-1.023,1.049,14.034,14.034,0,0,0-2.332,2.374C256.7,62.907,258.154,63.337,258.9,62.655ZM264,56a2,2,0,0,1,4,0v5a2,2,0,0,1-4,0s-2,.589-2,1v0.5a2.5,2.5,0,0,0,2.5,2.5h3a2.5,2.5,0,0,0,2.5-2.5v-8a2.5,2.5,0,0,0-2.5-2.5h-3a2.5,2.5,0,0,0-2.5,2.5v0.483C262,55.275,264,56,264,56Z" transform="translate(-257 -52)"/>
</svg>
