<svg id="icon" xmlns="http://www.w3.org/2000/svg" width="13" height="13" viewBox="0 0 13 13">
  <defs>
    <style>
      .cls-1 {
        fill: #fff;
        fill-rule: evenodd;
      }
    </style>
  </defs>
  <path id="scales_1" data-name="scales 1" class="cls-1" d="M719.879,68h1.241v0.867l2.364,0.835a2.188,2.188,0,0,0,.886.289,19.8,19.8,0,0,1,2.216-.8,7.131,7.131,0,0,1,.355,1.284,2.387,2.387,0,0,1-.621.225,6.149,6.149,0,0,1-1.241.449,7.435,7.435,0,0,0,.532,1.6c0.35,0.916.539,1.843,0.887,2.76a7.092,7.092,0,0,1,.5,1.509,7.3,7.3,0,0,1-1.152.9,3.659,3.659,0,0,1-3.457-.225,1.618,1.618,0,0,1-.828-0.77,10.819,10.819,0,0,0,.562-1.7c0.345-.913.591-1.886,0.945-2.825a5.133,5.133,0,0,0,.414-1.252l-2.364-.835V79.62h2.541V81h-6.322V79.62h2.54V70.311H719.82a2.776,2.776,0,0,1-.709.257,8.06,8.06,0,0,1-1.6.578,1.568,1.568,0,0,0,.177.546c0.138,0.359.227,0.725,0.355,1.059,0.35,0.916.539,1.843,0.886,2.76a7.036,7.036,0,0,1,.5,1.509,7.211,7.211,0,0,1-1.152.9,3.659,3.659,0,0,1-3.457-.225,1.613,1.613,0,0,1-.827-0.77,10.82,10.82,0,0,0,.561-1.7c0.346-.913.591-1.886,0.946-2.825a5.175,5.175,0,0,0,.413-1.252,5.853,5.853,0,0,1-1.418-.514,0.691,0.691,0,0,1-.473-0.225,4.635,4.635,0,0,1,.473-1.22,1.521,1.521,0,0,0,.443.16c0.4,0.158.821,0.283,1.241,0.449a1.064,1.064,0,0,0,.621.193,16.736,16.736,0,0,0,1.684-.642l1.388-.481V68Zm-3.191,4.911a3.783,3.783,0,0,1-.295.867c-0.219.581-.341,1.167-0.561,1.733H717.6V75.479a3.237,3.237,0,0,1-.206-0.642c-0.147-.386-0.307-0.828-0.444-1.22A1.537,1.537,0,0,0,716.688,72.911Zm7.564,0a3.783,3.783,0,0,1-.295.867c-0.22.581-.341,1.167-0.562,1.733h1.773V75.479a3.237,3.237,0,0,1-.207-0.642c-0.146-.386-0.306-0.828-0.443-1.22A1.537,1.537,0,0,0,724.252,72.911Z" transform="translate(-714 -68)"/>
</svg>
