<svg id="icon" xmlns="http://www.w3.org/2000/svg" width="19" height="19" viewBox="0 0 19 19">
  <defs>
    <style>
      .cls-1 {
        fill: none;
        stroke: #fff;
        stroke-width: 1px;
      }

      .cls-2 {
        fill: #fff;
        fill-rule: evenodd;
      }
    </style>
  </defs>
  <circle id="Эллипс_1412" data-name="Эллипс 1412" class="cls-1" cx="9.5" cy="9.5" r="9"/>
  <path id="steam_1" data-name="steam 1" class="cls-2" d="M1001.21,81.033c2.28-.342,4.86,2.056,3.33,4.474a3.514,3.514,0,0,1-1.75,1.3l-1.16.163c-0.39.336-2.856,1.941-2.909,2.034-0.028.19-.055,0.38-0.083,0.569a2.684,2.684,0,0,1-.914,1.057,2.461,2.461,0,0,1-3.654-1.464c-1.3-.379-2.146-0.842-3.239-1.139L990,84.938h0.166a6.332,6.332,0,0,0,1.744.651c0.989,0.4,2.226.968,3.24,1.3a4.141,4.141,0,0,1,1.5-.325,27.393,27.393,0,0,1,1.91-2.44,7.975,7.975,0,0,1,.581-1.871A2.785,2.785,0,0,1,1001.21,81.033Zm0.17,0.976a1.945,1.945,0,0,0-1.579,1.383c-0.585,1.809,1.709,3.214,3.239,2.2C1004.88,84.364,1003.76,81.925,1001.38,82.009Zm-0.08.407c1.56-.036,1.89.5,2.16,1.057a2.253,2.253,0,0,1-.09.976,1.709,1.709,0,0,1-2.16.976,1.541,1.541,0,0,1-1.08-1.952A1.834,1.834,0,0,1,1001.3,82.416Zm-5.154,4.718a3.394,3.394,0,0,1,1.329.976,1.234,1.234,0,0,1,0,1.22c-0.662.768-1.359,0.64-2.492,0.244v0.163h0.084c0.454,0.69,1.277.618,2.159,0.488,0.422-.5,1.444-1.341.665-2.278A1.776,1.776,0,0,0,996.146,87.134Z" transform="translate(-989.5 -75.5)"/>
</svg>
