<svg id="icon" xmlns="http://www.w3.org/2000/svg" width="12" height="12" viewBox="0 0 12 12">
  <defs>
    <style>
      .cls-1 {
        fill: #fff;
        fill-rule: evenodd;
      }
    </style>
  </defs>
  <path id="Фигура_2" data-name="Фигура 2" class="cls-1" d="M802,70a1.045,1.045,0,0,1,1-1h2c0.992,0,1.011,1,0,1a2.156,2.156,0,0,0-2,2c0,0.983-1,1.011-1,0V70Z" transform="translate(-802 -69)"/>
  <path id="Фигура_2_копия" data-name="Фигура 2 копия" class="cls-1" d="M812.933,69A1.115,1.115,0,0,1,814,70.067V72.2c0,1.058-1.067,1.078-1.067,0a2.3,2.3,0,0,0-2.133-2.133c-1.048,0-1.078-1.067,0-1.067h2.133Z" transform="translate(-802 -69)"/>
  <path id="Фигура_2_копия_2" data-name="Фигура 2 копия 2" class="cls-1" d="M814,80a1.045,1.045,0,0,1-1,1h-2c-0.992,0-1.011-1,0-1a2.156,2.156,0,0,0,2-2c0-.983,1-1.011,1,0v2Z" transform="translate(-802 -69)"/>
  <path id="Фигура_2_копия_2-2" data-name="Фигура 2 копия 2" class="cls-1" d="M803.067,81A1.115,1.115,0,0,1,802,79.933V77.8c0-1.058,1.067-1.078,1.067,0a2.3,2.3,0,0,0,2.133,2.133c1.048,0,1.078,1.067,0,1.067h-2.133Z" transform="translate(-802 -69)"/>
  <path id="Фигура_3" data-name="Фигура 3" class="cls-1" d="M807,74h-1c-1,0-1,2,0,2h1v1c0,1,2,.993,2,0V76h1c1.03,0,1-2,0-2h-1V73c0-1-2-1.006-2,0v1Z" transform="translate(-802 -69)"/>
</svg>
