<svg xmlns="http://www.w3.org/2000/svg" width="8" height="8" viewBox="0 0 8 8">
  <defs>
    <style>
      .cls-1 {
        fill: #c8c8c8;
        fill-rule: evenodd;
      }
    </style>
  </defs>
  <path id="cross_2340" data-name="cross 2340" class="cls-1" d="M65.611,719.545c-0.278.317-.563,0.625-0.833,0.88l-1.538,1.454c0.786,0.742,1.725,1.863,2.459,2.576,0.606,0.612.224,1.8-.687,1.5a12.125,12.125,0,0,1-2.111-1.9,3.142,3.142,0,0,0-.933-0.834,2.539,2.539,0,0,0-.687.648c-0.495.492-1.015,0.958-1.522,1.436a1.4,1.4,0,0,1-1.031.649c-0.627.025-1.085-.7-0.344-1.5,0.279-.317.564-0.82,0.835-1.075,0.512-.483,1.024-0.835,1.536-1.271-0.782-.742-1.713-1.855-2.441-2.564-0.6-.612-0.224-1.8.686-1.5a12.1,12.1,0,0,1,2.106,1.9,3.168,3.168,0,0,0,.931.834,2.525,2.525,0,0,0,.686-0.649c0.494-.491,1.012-0.957,1.519-1.435a1.394,1.394,0,0,1,1.029-.649C65.894,718.019,66.351,718.743,65.611,719.545Z" transform="translate(-58 -718)"/>
</svg>
