<svg xmlns="http://www.w3.org/2000/svg" width="17" height="10.031" viewBox="0 0 17 10.031">
  <defs>
    <style>
      .cls-1 {
        fill-rule: evenodd;
      }
    </style>
  </defs>
  <path id="vk_2029" data-name="vk 2029" class="cls-1" d="M243.368,986.037a23.059,23.059,0,0,1,2.509.04c0.088,0.118.243,0.191,0.324,0.317a13.56,13.56,0,0,1,.607,1.628,15.151,15.151,0,0,0,1.376,2.421,1.837,1.837,0,0,0,1.375,1.15,2.634,2.634,0,0,0,.162-1.23,9.3,9.3,0,0,0-.121-2.857c-0.115-.277-0.8-0.9-0.567-1.27a0.98,0.98,0,0,1,.85-0.2h2.064a0.836,0.836,0,0,1,.89.238,2.872,2.872,0,0,1,.081,1.231,11.986,11.986,0,0,0,.122,3.254c0.711,0.286,1.549-1.126,1.861-1.587a22.413,22.413,0,0,0,1.214-2.064,2.379,2.379,0,0,1,.526-0.953,7.423,7.423,0,0,1,2.833-.039,1.031,1.031,0,0,0,.162.2,2.485,2.485,0,0,1-.486,1.389,25.673,25.673,0,0,1-1.416,2.342,3.015,3.015,0,0,0-.81,1.389,2.732,2.732,0,0,0,.85.952,14.6,14.6,0,0,1,1.579,1.826,2.111,2.111,0,0,1,.647,1.349,0.676,0.676,0,0,1-.324.318,4.484,4.484,0,0,1-1.7.079,3.069,3.069,0,0,1-.891-0.04,2.906,2.906,0,0,1-1.092-1.031l-0.405-.358a7.734,7.734,0,0,0-.89-0.833,1.7,1.7,0,0,0-1.659-.635c-0.261.665-.018,1.894-0.2,2.619-1.128.653-3.029,0.06-3.925-.4-2.279-1.163-3.961-3.7-5.018-6.072-0.353-.791-1.083-1.924-0.85-2.976A2.821,2.821,0,0,0,243.368,986.037Z" transform="translate(-243 -986)"/>
</svg>
